<svg xmlns="http://www.w3.org/2000/svg" viewBox="0 0 48 48" fill="none">
  <!-- Rounded modern dark background tile -->
  <rect width="48" height="48" rx="12" fill="#090d16" />
  <rect width="46" height="46" x="1" y="1" rx="11" stroke="#1e293b" stroke-width="1.2" />
  
  <defs>
    <!-- Brand Cyan-to-Blue gradient matching ChroniX logo -->
    <linearGradient id="fav-x-grad" x1="0%" y1="0%" x2="100%" y2="100%">
      <stop offset="0%" stop-color="#38bdf8" />
      <stop offset="100%" stop-color="#0284c7" />
    </linearGradient>
    <!-- Origin dot accent gradient -->
    <linearGradient id="fav-dot-grad" x1="0%" y1="0%" x2="100%" y2="100%">
      <stop offset="0%" stop-color="#38bdf8" />
      <stop offset="100%" stop-color="#2563eb" />
    </linearGradient>
  </defs>

  <!-- Origin Coordinate Dot in bottom-left -->
  <circle cx="11.5" cy="35.5" r="4.2" fill="url(#fav-dot-grad)" />

  <!-- Authentic Suez One serif 'X' matching the ChroniX logo -->
  <path
    d="M 29.97 30.16 L 31.90 29.68 L 28.12 24.60 L 25.37 28.53 Q 25.22 28.72, 25.22 28.94 Q 25.22 29.20, 25.63 29.53 L 26.93 30.57 L 26.67 33.39 L 17.69 33.39 L 17.50 30.20 L 18.39 29.35 L 25.41 21.00 L 19.43 12.95 L 17.57 10.73 L 17.69 8.50 L 29.19 8.50 L 29.60 11.84 L 27.63 12.32 L 31.23 17.14 L 33.87 13.32 Q 33.98 13.14, 33.98 12.99 Q 33.98 12.69, 33.61 12.36 L 32.27 11.36 L 32.53 8.50 L 41.55 8.50 L 41.78 11.69 L 40.85 12.54 L 33.94 20.78 L 40.14 29.05 L 42.00 31.27 L 41.85 33.50 L 30.20 33.50 Z"
    fill="url(#fav-x-grad)"
  />
</svg>